# xmcd
#
# Track frame offsets: 
#        150
#        20917
#        44236
#        62936
#        81304
#        109959
#        123904
#        145995
#        167201
#        189228
#        207148
#        223509
#        250853
#        270700
#        295905
#
# Disc length: 4192 seconds
#
# Revision: 0
# Processed by: cddbd v1.5.2PL0 Copyright (c) Steve Scherf et al.
# Submitted via: ExactAudioCopy v1.0b4
#
DISCID=f0105e0f
DTITLE=Rockwell Avenue Blues Band - Back To Chicago
DYEAR=2018
DGENRE=Blues
TTITLE0=Blues For Hard Times
TTITLE1=Boogie In The Rain
TTITLE2=That Face
TTITLE3=Free To Love Again
TTITLE4=Lonesome Flight
TTITLE5=Charriot Gate
TTITLE6=We Believe
TTITLE7=Stranger Blues
TTITLE8=For A Reason
TTITLE9=Rich Man
TTITLE10=Hey Big Bill
TTITLE11=Love Police
TTITLE12=Back To Chicago
TTITLE13=Have You ever Told Yourself A Lie
TTITLE14=Dream
EXTD=
EXTT0=
EXTT1=
EXTT2=
EXTT3=
EXTT4=
EXTT5=
EXTT6=
EXTT7=
EXTT8=
EXTT9=
EXTT10=
EXTT11=
EXTT12=
EXTT13=
EXTT14=
PLAYORDER=
